<?xml version="1.0" standalone="no"?>
<!DOCTYPE svg PUBLIC "-//W3C//DTD SVG 20010904//EN"
 "http://www.w3.org/TR/2001/REC-SVG-20010904/DTD/svg10.dtd">
<svg version="1.0" xmlns="http://www.w3.org/2000/svg"
 width="512.000000pt" height="512.000000pt" viewBox="0 0 512.000000 512.000000"
 preserveAspectRatio="xMidYMid meet">
<metadata>
Created by potrace 1.14, written by Peter Selinger 2001-2017
</metadata>
<g transform="translate(0.000000,512.000000) scale(0.100000,-0.100000)"
fill="#000000" stroke="none">
<path d="M2258 4265 c-481 -85 -857 -403 -1022 -864 -138 -386 -83 -817 150
-1166 60 -90 89 -124 121 -142 31 -18 83 -16 104 3 22 20 39 11 39 -21 0 -13
6 -30 14 -38 19 -18 113 -29 138 -16 18 10 18 11 -4 51 -25 45 -103 117 -160
150 -42 24 -47 33 -20 35 113 8 152 9 152 1 0 -4 10 -8 23 -8 13 0 28 -5 35
-12 7 -7 12 -8 12 -4 0 5 6 4 13 -2 9 -8 20 -7 37 3 14 8 32 17 40 20 9 4 22
20 30 38 12 28 14 29 21 11 6 -16 8 -16 8 -2 1 10 -8 22 -19 28 -23 13 -27 40
-5 40 8 0 15 -9 15 -20 0 -15 7 -20 28 -20 16 0 38 -9 50 -21 27 -24 62 -17
62 12 0 10 3 18 8 18 23 -4 32 5 38 36 3 19 10 38 15 41 5 2 25 39 44 80 31
65 35 82 29 120 -3 24 -9 44 -13 44 -11 0 -127 -73 -236 -148 -74 -52 -105
-79 -105 -93 0 -27 -42 -117 -47 -102 -3 8 -12 9 -33 2 -22 -8 -37 -7 -63 6
-64 30 -77 111 -27 165 25 26 36 31 68 29 27 -2 47 3 64 16 l24 20 -62 0 c-54
-1 -68 -5 -118 -38 -30 -20 -60 -37 -66 -37 -5 0 -10 -11 -10 -24 0 -34 -44
-82 -86 -96 -61 -21 -120 -5 -169 45 -94 94 -81 234 28 296 27 15 48 19 69 15
26 -5 42 2 94 36 53 36 63 48 64 72 0 35 54 92 96 102 16 3 50 20 77 36 42 27
47 34 47 67 1 64 33 116 97 158 32 20 78 42 103 49 42 11 131 62 173 99 9 8
17 25 17 38 0 64 118 170 192 172 24 1 53 12 86 35 27 19 84 59 126 88 55 38
76 59 76 75 0 12 6 29 13 38 16 21 116 87 201 134 64 34 76 38 155 39 75 1 94
-3 148 -28 101 -46 178 -142 209 -261 38 -142 -2 -234 -146 -342 -140 -103
-175 -123 -224 -123 -42 0 -59 -9 -166 -80 -66 -44 -120 -85 -120 -90 0 -18
-61 -78 -110 -110 -29 -19 -64 -32 -84 -33 -39 -1 -38 -7 12 -51 19 -17 43
-49 53 -71 21 -45 25 -145 8 -176 -8 -16 -5 -31 15 -71 14 -29 26 -47 26 -41
0 18 41 27 51 12 6 -10 9 -11 9 -1 0 6 7 12 15 12 9 0 15 9 15 23 0 28 34 62
61 62 10 0 20 5 21 10 3 16 26 36 40 34 45 -6 69 2 78 26 5 14 16 28 24 31 7
3 24 25 36 49 48 92 130 146 237 153 64 4 78 1 136 -25 75 -36 110 -69 143
-138 25 -53 32 -133 15 -178 -11 -27 -8 -27 66 2 35 14 54 58 31 72 -9 6 -10
11 -2 19 8 8 14 7 24 -5 22 -26 47 -18 53 18 3 17 12 77 21 132 41 265 -1 529
-124 776 -172 345 -510 603 -905 691 -117 26 -385 33 -497 13z m270 -67 c-6
-18 -28 -21 -28 -4 0 9 7 16 16 16 9 0 14 -5 12 -12z m279 -42 c-4 -9 -11 -16
-16 -16 -15 0 -23 33 -9 41 17 11 32 -5 25 -25z m-589 -4 c3 -16 -2 -22 -17
-22 -24 0 -35 15 -27 36 9 23 40 13 44 -14z m137 10 c0 -18 -20 -15 -23 4 -3
10 1 15 10 12 7 -3 13 -10 13 -16z m-285 -26 c0 -21 -21 -31 -30 -15 -5 7 -6
17 -4 21 9 14 34 9 34 -6z m611 -26 c28 -16 24 -60 -10 -108 -40 -54 -123
-122 -280 -229 -114 -77 -132 -93 -141 -124 -14 -49 -62 -114 -107 -142 -78
-49 -141 -57 -243 -33 -59 14 -55 15 -225 -34 -216 -62 -308 -79 -359 -66 -33
8 -43 44 -22 83 31 60 204 204 327 270 61 34 69 41 69 68 0 44 52 147 91 179
83 71 194 86 302 42 l58 -24 72 28 c70 27 266 84 317 93 50 9 132 7 151 -3z
m264 0 c9 -15 -4 -50 -19 -50 -20 0 -37 25 -30 44 7 18 39 22 49 6z m141 -51
c10 -17 -13 -36 -27 -22 -12 12 -4 33 11 33 5 0 12 -5 16 -11z m-284 -61 c7
-19 -2 -38 -17 -38 -21 0 -28 19 -15 35 15 18 26 19 32 3z m-1172 -98 c0 -5
-4 -10 -10 -10 -5 0 -10 5 -10 10 0 6 5 10 10 10 6 0 10 -4 10 -10z m1048 -43
c2 -12 -3 -17 -17 -17 -15 0 -21 6 -21 21 0 25 33 22 38 -4z m-1111 -53 c8
-21 -13 -42 -28 -27 -13 13 -5 43 11 43 6 0 13 -7 17 -16z m970 -50 c3 -8 1
-20 -6 -27 -14 -14 -47 15 -37 32 10 16 36 13 43 -5z m-143 -116 c-16 -17 -18
-17 -30 -1 -8 13 -9 23 -2 36 9 18 11 18 29 1 18 -16 18 -18 3 -36z m1134 0
c-6 -18 -28 -21 -28 -4 0 9 7 16 16 16 9 0 14 -5 12 -12z m62 -88 c0 -5 -2
-10 -4 -10 -3 0 -8 5 -11 10 -3 6 -1 10 4 10 6 0 11 -4 11 -10z m10 -90 c0
-14 11 -26 33 -35 33 -14 33 -15 -20 -31 -7 -2 -13 -12 -13 -23 0 -11 -4 -23
-10 -26 -5 -3 -10 2 -10 11 0 24 -29 54 -52 54 -11 0 -16 5 -13 10 3 6 15 10
26 10 11 0 24 11 31 25 14 30 28 33 28 5z m-1784 -72 c9 -41 11 -44 68 -62
l59 -19 -46 -12 c-56 -14 -77 -30 -77 -60 0 -38 -12 -85 -20 -80 -5 3 -11 27
-15 55 -8 57 -18 68 -82 84 l-48 13 45 12 c52 15 80 36 80 62 0 23 10 49 20
49 4 0 11 -19 16 -42z m264 -18 c0 -4 -6 -13 -14 -19 -17 -14 -31 2 -22 24 5
15 36 10 36 -5z m1378 -43 c2 -10 -3 -17 -12 -17 -18 0 -29 16 -21 31 9 14 29
6 33 -14z m-1894 -3 c8 -22 8 -24 -8 -24 -18 0 -29 16 -21 30 9 15 22 12 29
-6z m-111 -55 c25 -11 47 -47 47 -75 0 -9 -9 -29 -21 -45 -36 -51 -109 -32
-132 34 -9 24 19 76 46 87 30 12 32 12 60 -1z m527 1 c0 -5 -2 -10 -4 -10 -3
0 -8 5 -11 10 -3 6 -1 10 4 10 6 0 11 -4 11 -10z m1343 -66 c6 -58 22 -73 89
-89 54 -13 51 -19 -13 -29 -56 -10 -71 -26 -77 -85 -6 -67 -18 -73 -27 -13
-10 69 -27 90 -80 98 -60 8 -65 21 -13 29 64 11 77 23 89 87 13 67 24 68 32 2z
m-1409 15 c-3 -5 -10 -7 -15 -3 -5 3 -7 10 -3 15 3 5 10 7 15 3 5 -3 7 -10 3
-15z m1816 1 c0 -13 -7 -20 -20 -20 -13 0 -20 7 -20 20 0 13 7 20 20 20 13 0
20 -7 20 -20z m-212 -46 c-19 -19 -38 -11 -38 16 0 24 21 31 40 14 12 -12 12
-16 -2 -30z m-1908 16 c0 -5 -2 -10 -4 -10 -3 0 -8 5 -11 10 -3 6 -1 10 4 10
6 0 11 -4 11 -10z m2000 -31 c0 -5 -4 -9 -10 -9 -5 0 -10 7 -10 16 0 8 5 12
10 9 6 -3 10 -10 10 -16z m75 -9 c3 -5 1 -10 -4 -10 -6 0 -11 5 -11 10 0 6 2
10 4 10 3 0 8 -4 11 -10z m-2430 -50 c0 -8 -8 -16 -17 -18 -13 -2 -18 3 -18
18 0 15 5 20 18 18 9 -2 17 -10 17 -18z m295 10 c0 -5 -4 -10 -10 -10 -5 0
-10 5 -10 10 0 6 5 10 10 10 6 0 10 -4 10 -10z m130 -10 c0 -5 -2 -10 -4 -10
-3 0 -8 5 -11 10 -3 6 -1 10 4 10 6 0 11 -4 11 -10z m1327 -16 c-9 -9 -28 6
-21 18 4 6 10 6 17 -1 6 -6 8 -13 4 -17z m98 -44 c0 -8 -8 -16 -17 -18 -13 -2
-18 3 -18 18 0 15 5 20 18 18 9 -2 17 -10 17 -18z m501 9 c10 -17 -13 -36 -27
-22 -12 12 -4 33 11 33 5 0 12 -5 16 -11z m-1936 -14 c0 -8 -7 -15 -15 -15 -8
0 -15 7 -15 15 0 8 7 15 15 15 8 0 15 -7 15 -15z m1265 -15 c0 -22 -29 -18
-33 3 -3 14 1 18 15 15 10 -2 18 -10 18 -18z m575 5 c0 -8 -7 -15 -15 -15 -8
0 -15 7 -15 15 0 8 7 15 15 15 8 0 15 -7 15 -15z m-2016 -37 c8 -14 7 -22 -7
-35 -16 -16 -18 -16 -39 4 -18 19 -19 24 -8 38 16 19 39 16 54 -7z m2196 -3
c5 -14 21 -30 35 -35 28 -11 34 -30 8 -30 -23 0 -53 -29 -53 -52 0 -28 -17
-13 -23 22 -5 21 -12 30 -26 30 -33 0 -34 20 -2 31 19 7 31 18 31 28 0 16 8
31 17 31 2 0 8 -11 13 -25z m-530 -45 c0 -11 -4 -20 -9 -20 -14 0 -23 18 -16
30 10 17 25 11 25 -10z m-1890 -5 c0 -8 -4 -15 -10 -15 -5 0 -10 7 -10 15 0 8
5 15 10 15 6 0 10 -7 10 -15z m1820 -5 c0 -5 -4 -10 -10 -10 -5 0 -10 5 -10
10 0 6 5 10 10 10 6 0 10 -4 10 -10z m410 0 c0 -5 -7 -10 -15 -10 -8 0 -15 5
-15 10 0 6 7 10 15 10 8 0 15 -4 15 -10z m-515 -56 c15 -23 15 -27 0 -50 -19
-30 -23 -30 -57 3 l-28 27 22 23 c28 30 42 29 63 -3z m-1635 -9 c0 -8 -4 -15
-10 -15 -5 0 -10 7 -10 15 0 8 5 15 10 15 6 0 10 -7 10 -15z m170 -5 c0 -5 -5
-10 -11 -10 -5 0 -7 5 -4 10 3 6 8 10 11 10 2 0 4 -4 4 -10z m1288 -13 c4 -20
-25 -34 -40 -19 -15 15 -1 44 19 40 10 -2 19 -11 21 -21z m-1578 -62 c0 -8 -4
-15 -10 -15 -5 0 -10 7 -10 15 0 8 5 15 10 15 6 0 10 -7 10 -15z m2510 -31 c0
-16 -16 -19 -25 -4 -8 13 4 32 16 25 5 -4 9 -13 9 -21z m-2440 -36 c0 -16 -3
-19 -11 -11 -6 6 -8 16 -5 22 11 17 16 13 16 -11z m1487 -23 c1 -5 -1 -16 -6
-24 -8 -12 -12 -12 -25 -2 -8 7 -12 19 -9 27 6 16 34 15 40 -1z m-37 -119 c0
-11 -19 -15 -25 -6 -3 5 1 10 9 10 9 0 16 -2 16 -4z m-560 -36 c0 -5 -4 -10
-10 -10 -5 0 -10 5 -10 10 0 6 5 10 10 10 6 0 10 -4 10 -10z m-20 -35 c0 -8
-4 -15 -10 -15 -5 0 -10 7 -10 15 0 8 5 15 10 15 6 0 10 -7 10 -15z m-100 -66
c0 -14 -5 -19 -17 -17 -26 5 -29 38 -4 38 15 0 21 -6 21 -21z m-740 -49 c0 -5
-5 -10 -11 -10 -5 0 -7 5 -4 10 3 6 8 10 11 10 2 0 4 -4 4 -10z m810 -30 c0
-5 -4 -10 -10 -10 -5 0 -10 5 -10 10 0 6 5 10 10 10 6 0 10 -4 10 -10z m-710
-24 c0 -3 -4 -8 -10 -11 -5 -3 -10 -1 -10 4 0 6 5 11 10 11 6 0 10 -2 10 -4z
m130 -56 c0 -5 -2 -10 -4 -10 -3 0 -8 5 -11 10 -3 6 -1 10 4 10 6 0 11 -4 11
-10z m-90 -46 c0 -16 -16 -19 -25 -4 -8 13 4 32 16 25 5 -4 9 -13 9 -21z"/>
<path d="M2505 4084 c-74 -13 -242 -61 -220 -63 6 -1 42 6 80 14 136 29 205
16 192 -35 -7 -28 0 -25 34 11 41 44 36 15 -7 -38 -35 -43 -245 -191 -397
-280 -140 -83 -424 -192 -644 -248 -158 -40 -192 -32 -158 37 23 46 159 164
239 206 60 32 81 52 57 52 -5 0 -58 -32 -118 -71 -113 -75 -239 -187 -254
-228 -30 -76 98 -68 376 24 178 59 344 123 408 158 34 19 89 49 122 67 113 62
340 218 391 269 122 122 92 159 -101 125z"/>
<path d="M2183 3990 c-13 -5 -23 -12 -23 -15 0 -9 16 -5 36 10 22 16 19 18
-13 5z"/>
<path d="M2325 3984 c-28 -6 -135 -37 -135 -39 0 -1 15 -31 34 -67 l34 -66 28
14 c77 37 174 130 160 153 -7 10 -79 13 -121 5z"/>
<path d="M1794 3917 c-8 -4 -24 -27 -36 -50 -32 -61 -32 -174 1 -237 13 -25
25 -46 26 -48 4 -5 225 82 283 112 52 26 154 98 148 104 -2 2 -21 -4 -41 -12
l-38 -16 -54 46 c-53 45 -106 72 -148 74 l-20 1 20 9 c19 7 18 8 -5 13 -44 10
-120 13 -136 4z m296 -126 c19 -17 30 -31 24 -31 -6 0 -31 18 -55 41 -49 45
-24 37 31 -10z"/>
<path d="M1614 3643 c-38 -32 -71 -57 -74 -56 -3 1 -7 -1 -10 -4 -3 -4 2 -3
10 1 8 4 4 -1 -9 -11 -14 -12 -22 -27 -19 -39 6 -28 86 -22 174 13 68 27 71
30 57 48 -8 11 -24 39 -35 63 -10 23 -20 42 -22 42 -1 0 -33 -26 -72 -57z"/>
<path d="M2033 3566 c-62 -28 -112 -54 -113 -58 0 -16 116 -7 155 11 43 19 99
77 89 92 -7 12 -6 13 -131 -45z"/>
<path d="M1635 3495 c-25 -12 -26 -14 -5 -9 28 7 60 23 45 23 -5 0 -23 -6 -40
-14z"/>
<path d="M1393 3200 c-28 -11 -29 -22 -5 -43 39 -35 105 -6 88 39 -6 16 -49
18 -83 4z"/>
<path d="M1620 4069 c0 -5 5 -7 10 -4 6 3 10 8 10 11 0 2 -4 4 -10 4 -5 0 -10
-5 -10 -11z"/>
<path d="M1419 4028 c-156 -160 -294 -387 -363 -592 -51 -152 -69 -252 -74
-425 -6 -202 7 -304 59 -478 100 -338 301 -611 604 -818 86 -59 271 -149 343
-167 51 -13 54 -15 173 -168 109 -141 281 -388 295 -425 9 -22 19 -18 35 12
22 43 258 370 332 461 37 45 67 87 67 91 0 5 19 14 43 19 23 6 52 14 65 17 20
7 22 4 22 -30 0 -44 -34 -163 -62 -218 -31 -61 -21 -71 65 -63 78 6 234 38
281 56 22 8 44 8 85 -1 71 -15 177 -6 261 22 212 70 360 285 360 526 0 124
-53 249 -153 364 l-45 51 33 72 c38 82 88 232 111 332 22 93 31 415 14 509
-29 169 -72 300 -147 453 -37 74 -59 109 -64 100 -5 -7 -3 -16 4 -20 9 -5 9
-10 -2 -20 -11 -11 -16 -9 -28 10 -9 12 -21 22 -27 22 -6 0 -18 15 -26 33 -9
20 -24 33 -38 35 -13 2 -36 21 -52 44 -17 23 -30 37 -30 33 0 -5 -7 0 -15 11
-8 10 -15 15 -15 11 0 -12 36 -57 42 -52 3 3 11 -7 19 -23 8 -15 16 -29 19
-32 3 -3 21 -32 41 -65 150 -249 212 -460 212 -730 0 -220 -38 -397 -125 -587
l-30 -66 -46 1 c-73 3 -65 -22 21 -62 141 -67 243 -208 268 -371 10 -65 9 -87
-5 -152 -42 -187 -153 -318 -322 -379 -73 -27 -216 -30 -280 -6 -39 14 -45 14
-105 -8 -70 -25 -178 -50 -185 -42 -3 3 6 52 19 111 l23 105 -42 62 c-24 34
-45 66 -46 71 -2 5 -44 -2 -98 -17 -113 -32 -238 -55 -297 -55 l-43 0 0 -47 0
-48 60 3 c33 2 60 0 60 -5 0 -5 -41 -60 -91 -123 -50 -63 -95 -123 -100 -132
-15 -28 -31 -21 -63 23 -16 23 -52 69 -80 103 -28 33 -64 78 -80 100 l-29 39
56 -5 57 -5 0 47 0 47 -72 7 c-269 25 -564 172 -783 391 -205 206 -324 430
-386 730 -26 123 -28 354 -5 485 47 267 206 573 389 752 34 34 37 40 23 53 -8
8 -19 15 -25 15 -6 0 -8 7 -5 15 7 18 -17 20 -34 3 -7 -7 -12 -8 -12 -2 0 6 5
15 12 22 7 7 9 12 5 12 -4 0 -26 -19 -48 -42z"/>
<path d="M3500 3915 c0 -9 5 -15 11 -13 6 2 11 8 11 13 0 5 -5 11 -11 13 -6 2
-11 -4 -11 -13z"/>
<path d="M3083 3866 c-64 -29 -88 -125 -54 -219 50 -143 189 -247 271 -205 31
17 68 81 76 135 9 62 -26 168 -72 216 -66 69 -160 100 -221 73z m112 -66 c31
-15 45 -29 52 -53 5 -17 15 -31 22 -29 16 3 3 -50 -17 -65 -9 -7 -33 -13 -54
-13 -33 0 -45 7 -83 48 -50 53 -54 68 -24 106 25 31 49 33 104 6z"/>
<path d="M2884 3665 c-16 -24 -15 -28 6 -88 49 -134 176 -257 267 -257 13 0
38 8 56 17 l32 17 -31 6 c-53 12 -134 62 -174 109 -47 58 -97 141 -108 183
-10 41 -27 46 -48 13z"/>
<path d="M2780 3599 c0 -18 45 -127 68 -164 36 -59 70 -93 136 -136 62 -41 99
-48 130 -24 19 14 19 15 0 20 -91 29 -193 126 -248 235 -30 61 -41 75 -61 76
-14 0 -25 -3 -25 -7z"/>
<path d="M2701 3569 c-6 -17 -15 -28 -20 -25 -5 4 -22 -4 -38 -17 -15 -12 -39
-28 -53 -35 -14 -7 -44 -31 -68 -52 -53 -49 -65 -50 -60 -5 3 24 1 32 -6 25
-6 -6 -13 -47 -15 -91 -3 -76 -1 -85 34 -155 30 -62 45 -81 90 -110 71 -47
118 -53 170 -20 30 19 35 26 20 26 l-20 1 20 15 c11 8 30 12 42 9 12 -3 25 -1
28 5 3 6 -1 7 -9 4 -33 -13 -14 5 62 56 42 29 79 55 81 57 3 2 -6 11 -20 20
-95 66 -174 175 -199 276 -14 55 -24 59 -39 16z"/>
<path d="M2321 3347 c-20 -48 -21 -59 -10 -103 28 -114 95 -208 184 -259 64
-37 98 -40 144 -14 l40 22 -49 17 c-71 24 -124 62 -175 128 -67 85 -95 146
-95 209 0 29 -4 53 -9 53 -5 0 -18 -24 -30 -53z"/>
<path d="M2241 3242 c-1 -24 -5 -41 -9 -38 -5 3 -42 -17 -83 -44 -41 -28 -78
-50 -83 -50 -4 0 -6 12 -3 26 8 42 -14 11 -24 -34 -10 -46 2 -125 26 -173 35
-68 131 -139 187 -139 12 0 74 34 137 75 62 41 109 75 103 75 -5 0 -36 20 -69
44 -72 52 -124 128 -157 227 -25 74 -25 74 -25 31z"/>
<path d="M1943 3023 c-10 -16 -13 -16 -23 -3 -21 29 0 -93 26 -147 32 -67 120
-146 180 -163 39 -11 49 -11 79 6 l35 18 -58 26 c-73 34 -149 116 -194 210
-29 62 -34 68 -45 53z"/>
<path d="M1870 2923 c0 -27 -81 -86 -88 -65 -6 20 -22 3 -22 -24 0 -56 79
-174 117 -174 7 0 38 16 68 36 l54 36 -38 45 c-22 24 -51 72 -65 106 -15 37
-25 53 -26 40z m119 -186 c-2 -1 -13 -9 -24 -17 -19 -14 -19 -14 -6 3 7 9 18
17 24 17 6 0 8 -1 6 -3z"/>
<path d="M3205 2838 c-52 -27 -87 -59 -81 -75 3 -7 0 -15 -6 -19 -7 -5 -8 -2
-4 7 4 8 -2 3 -13 -11 -11 -14 -21 -29 -20 -35 0 -5 4 -2 10 8 10 16 12 16 29
-5 l19 -23 27 34 c32 39 78 61 130 61 37 0 104 -19 104 -30 0 -3 9 -16 20 -30
18 -23 19 -23 14 -3 -4 16 0 23 16 28 17 5 21 13 17 31 -2 13 1 25 7 27 6 2
-12 16 -41 30 -68 35 -167 37 -228 5z"/>
<path d="M2383 2780 c-53 -28 -62 -39 -69 -85 -13 -91 59 -175 151 -175 78 0
145 61 145 131 0 36 -39 103 -74 127 -39 27 -106 28 -153 2z m115 -56 c29 -20
31 -79 3 -94 -26 -14 -64 -13 -79 2 -21 21 -15 75 10 92 12 9 27 16 33 16 6 0
21 -7 33 -16z"/>
<path d="M1690 2770 c0 -29 27 -91 51 -117 29 -30 74 -47 104 -39 26 7 25 7
-22 39 -32 21 -57 49 -76 85 -29 53 -57 69 -57 32z"/>
<path d="M3232 2733 c-34 -16 -65 -53 -76 -90 -11 -34 9 -35 38 -2 43 48 90
63 144 48 36 -10 45 -10 52 1 12 19 3 30 -36 46 -43 18 -81 17 -122 -3z"/>
<path d="M1648 2719 c-9 -24 -141 -115 -146 -101 -8 25 -22 10 -22 -24 0 -40
30 -89 59 -99 19 -6 111 50 111 67 0 4 3 7 8 7 21 -4 33 3 48 26 16 24 16 27
-4 48 -11 12 -27 38 -34 57 -10 25 -16 30 -20 19z"/>
<path d="M3261 2661 c-13 -3 -30 -16 -39 -29 -13 -20 -13 -22 3 -28 12 -5 23
0 34 13 19 25 56 38 73 26 9 -5 3 -9 -16 -13 -36 -6 -51 -29 -42 -63 9 -38 30
-35 22 4 -5 27 -2 31 24 41 34 11 37 20 14 42 -16 17 -33 18 -73 7z"/>
<path d="M1969 2575 c-63 -47 -115 -92 -117 -100 -2 -8 -21 -19 -42 -25 -44
-12 -63 -31 -54 -54 8 -21 52 -32 73 -19 9 6 17 26 19 47 2 20 7 36 12 36 4 0
34 18 66 41 33 22 94 63 137 91 42 27 77 54 77 59 0 5 -13 9 -28 9 -20 0 -62
-25 -143 -85z"/>
<path d="M1954 2618 l-29 -33 35 30 c19 17 37 31 39 33 2 1 0 2 -5 2 -6 0 -23
-15 -40 -32z"/>
<path d="M1397 2580 c-64 -75 67 -216 147 -157 16 11 13 14 -24 31 -46 20 -90
77 -90 118 0 33 -9 35 -33 8z"/>
<path d="M3320 2590 c0 -13 20 -13 40 0 12 8 9 10 -12 10 -16 0 -28 -4 -28
-10z"/>
<path d="M2310 2507 c0 -7 -31 -75 -69 -152 -116 -237 -264 -555 -275 -592 -6
-17 -3 -23 8 -23 9 0 25 -5 36 -12 10 -7 22 -10 25 -7 16 16 338 709 342 736
4 27 1 34 -25 47 -37 19 -42 20 -42 3z"/>
<path d="M2564 2495 c-33 -23 -17 -79 80 -280 48 -99 122 -253 163 -343 60
-128 80 -162 92 -157 9 4 28 9 44 12 15 3 27 7 27 9 0 5 -166 353 -191 399
-12 22 -36 67 -54 100 -18 33 -54 108 -80 168 -26 59 -50 107 -54 107 -4 0
-16 -7 -27 -15z"/>
<path d="M2422 1909 l3 -570 27 -17 c54 -32 53 -42 49 576 -2 312 -4 567 -5
568 0 1 -18 4 -39 7 l-37 6 2 -570z"/>
<path d="M3530 2330 c-12 -8 -10 -10 8 -10 13 0 20 4 17 10 -7 12 -6 12 -25 0z"/>
<path d="M3430 2250 c-65 -9 -143 -34 -187 -61 -48 -30 -125 -119 -155 -180
-75 -155 -59 -307 48 -444 34 -43 39 -56 37 -98 -1 -44 0 -47 20 -41 12 3 27
11 33 16 8 5 31 1 64 -12 259 -102 536 33 594 290 27 118 17 203 -40 314 -49
97 -134 166 -254 205 -67 22 -74 23 -160 11z m123 -167 c27 -31 30 -66 9 -121
l-20 -52 88 0 c67 0 92 -4 104 -16 20 -20 20 -48 1 -64 -11 -9 -13 -16 -5 -24
16 -16 12 -44 -10 -56 -17 -9 -18 -14 -9 -32 10 -18 8 -25 -12 -41 -15 -12
-23 -27 -21 -42 5 -36 -25 -45 -147 -45 -100 0 -112 2 -136 23 -25 21 -27 30
-32 127 l-6 105 67 88 c38 51 66 98 66 112 0 54 31 73 63 38z m-228 -338 l0
-150 -48 -3 c-75 -5 -77 0 -77 158 0 75 3 140 7 144 4 4 32 6 63 4 l55 -3 0
-150z"/>
</g>
</svg>
